# xmcd CD database file
#
# Track frame offsets:
#	150
#	9602
#	21392
#	53075
#	66647
#	102407
#	112267
#	135872
#	145812
#	152722
#	163200
#	182092
#
# Disc length: 2865 seconds
#
# Revision: 2
# Processed by: cddbd v1.4b41PL1 Copyright (c) Steve Scherf et al.
# Submitted via: Feurio! 1.50.2ß - http://www.feurio.com
#
DISCID=ac0b2f0c
DTITLE=Ann Leaf and Gaylord Carter - The Mighty Wurlitzer
DYEAR=1900
DGENRE=
TTITLE0=Strike Up The Band
TTITLE1=You Do Something To Me
TTITLE2=The Son Of The Sheik
TTITLE3=You Were Meant For Me
TTITLE4=Orphans Of The Storm
TTITLE5=Jeannine, I dream Of Lilac Time
TTITLE6=For Heaven`s Sake
TTITLE7=My Romance
TTITLE8=Great Day
TTITLE9=Charmaine
TTITLE10=Intolerance
TTITLE11=The Phantom Of The Opera
EXTD=
EXTT0=
EXTT1=
EXTT2=
EXTT3=
EXTT4=
EXTT5=
EXTT6=
EXTT7=
EXTT8=
EXTT9=
EXTT10=
EXTT11=
PLAYORDER=
